<?xml version="1.0" encoding="UTF-8"?>
<!-- Generator: Adobe Illustrator 27.0.0, SVG Export Plug-In . SVG Version: 6.00 Build 0)  -->
<svg xmlns="http://www.w3.org/2000/svg" xmlns:xlink="http://www.w3.org/1999/xlink" version="1.1" id="Livello_1" x="0px" y="0px" viewBox="0 0 384 132" style="enable-background:new 0 0 384 132;" xml:space="preserve">
<style type="text/css">
	.st0{fill:#1C1C1C;}
	.st1{fill:none;}
	.st2{fill:#FFE733;}
	.st3{fill:none;stroke:#1A1A1A;stroke-width:1.0237;stroke-linejoin:round;stroke-miterlimit:10;}
</style>
<g>
	<polygon class="st0" points="150.07,68.94 176.69,68.94 176.69,74.4 156.55,74.4 156.55,86.38 173.58,86.38 173.58,91.84    156.55,91.84 156.55,105.72 177.33,105.72 177.33,111.17 150.07,111.17  "></polygon>
	<path class="st0" d="M185.82,105.74l3.8-4.46c3.21,3.02,7.48,5.01,12.07,5.01c5.35,0,8.31-2.46,8.31-5.86   c0-4.13-3.08-5.27-7.27-7.04l-5.96-2.61c-4.31-1.7-9.04-4.82-9.04-11.04c0-6.58,5.93-11.56,14.26-11.56c5.23,0,9.99,2.07,13.27,5.3   l-3.34,4.13c-2.82-2.37-5.89-3.77-10.2-3.77c-4.44,0-7.43,2.06-7.43,5.51c0,3.67,3.64,5,7.36,6.45l5.73,2.52   c5.3,2.06,9.26,5.15,9.26,11.32c0,6.78-5.72,12.31-15.3,12.31C195.28,111.95,189.79,109.59,185.82,105.74"></path>
	<path class="st0" d="M224.51,105.74l3.8-4.46c3.21,3.02,7.48,5.01,12.07,5.01c5.35,0,8.31-2.46,8.31-5.86   c0-4.13-3.08-5.27-7.27-7.04l-5.96-2.61c-4.31-1.7-9.04-4.82-9.04-11.04c0-6.58,5.93-11.56,14.26-11.56c5.23,0,9.99,2.07,13.27,5.3   l-3.34,4.13c-2.82-2.37-5.89-3.77-10.2-3.77c-4.44,0-7.43,2.06-7.43,5.51c0,3.67,3.64,5,7.36,6.45l5.73,2.52   c5.3,2.06,9.26,5.15,9.26,11.32c0,6.78-5.72,12.31-15.3,12.31C233.97,111.95,228.49,109.59,224.51,105.74"></path>
	<path class="st0" d="M277.99,89.85c6.8,0,10.07-2.61,10.07-8.19c0-5.63-3.37-7.52-10.07-7.52h-6.23v15.71H277.99z M265.28,68.94   h13.32c9.29,0,15.88,3.2,15.88,12.72c0,9.2-6.69,13.39-15.88,13.39h-6.85v16.12h-6.48V68.94z"></path>
	<polygon class="st0" points="303.63,105.72 313.97,105.72 313.97,74.4 303.63,74.4 303.63,68.94 330.77,68.94 330.77,74.4    320.44,74.4 320.44,105.72 330.77,105.72 330.77,111.17 303.63,111.17  "></polygon>
	<path class="st0" d="M341.57,68.94h6.92l12.33,25.1l3.94,8.89h0.15c-0.25-4.25-0.87-9.31-0.87-13.9v-20.1h6.17v42.23h-6.92   l-12.33-25.11l-3.94-8.88h-0.15c0.25,4.41,0.87,9.21,0.87,13.74v20.25h-6.17V68.94z"></path>
	<path class="st0" d="M41.19,70.88c0.02,0.17,0.04,0.33,0.07,0.5c2.69,18.59,19.94,31.47,38.52,28.78   c18.59-2.69,31.47-19.94,28.78-38.52c-0.02-0.17-0.05-0.33-0.08-0.5L41.19,70.88z"></path>
	<path class="st0" d="M49.79,115.04c0.46,0,0.83-0.37,0.83-0.83c0-0.46-0.37-0.83-0.83-0.83c-0.46,0-0.83,0.37-0.83,0.83   C48.96,114.67,49.33,115.04,49.79,115.04"></path>
	<path class="st0" d="M45.62,110.87c0.46,0,0.83-0.37,0.83-0.83c0-0.46-0.37-0.83-0.83-0.83c-0.46,0-0.83,0.37-0.83,0.83   C44.79,110.5,45.16,110.87,45.62,110.87"></path>
	<path class="st0" d="M53.96,110.87c0.46,0,0.83-0.37,0.83-0.83c0-0.46-0.37-0.83-0.83-0.83c-0.46,0-0.83,0.37-0.83,0.83   C53.12,110.5,53.5,110.87,53.96,110.87"></path>
	<path class="st1" d="M44.33,110.04c3.01,2.1,6.23,3.9,9.63,5.35v-5.35H44.33z"></path>
	<path class="st0" d="M61.45,119.21c0.46,0,0.83-0.37,0.83-0.83c0-0.46-0.37-0.83-0.83-0.83c-0.46,0-0.83,0.37-0.83,0.83   C60.62,118.83,60.99,119.21,61.45,119.21"></path>
	<path class="st0" d="M69.78,119.21c0.46,0,0.83-0.37,0.83-0.83c0-0.46-0.37-0.83-0.83-0.83c-0.46,0-0.83,0.37-0.83,0.83   C68.95,118.83,69.32,119.21,69.78,119.21"></path>
	<path class="st0" d="M65.62,115.04c0.46,0,0.83-0.37,0.83-0.83c0-0.46-0.37-0.83-0.83-0.83c-0.46,0-0.83,0.37-0.83,0.83   C64.78,114.67,65.16,115.04,65.62,115.04"></path>
	<path class="st0" d="M57.28,115.04c0.46,0,0.83-0.37,0.83-0.83c0-0.46-0.37-0.83-0.83-0.83c-0.46,0-0.83,0.37-0.83,0.83   C56.45,114.67,56.82,115.04,57.28,115.04"></path>
	<path class="st0" d="M53.12,119.21c0.46,0,0.83-0.37,0.83-0.83c0-0.46-0.37-0.83-0.83-0.83c-0.46,0-0.83,0.37-0.83,0.83   C52.28,118.83,52.66,119.21,53.12,119.21"></path>
	<path class="st0" d="M61.45,110.87c0.46,0,0.83-0.37,0.83-0.83c0-0.46-0.37-0.83-0.83-0.83c-0.46,0-0.83,0.37-0.83,0.83   C60.62,110.5,60.99,110.87,61.45,110.87"></path>
	<path class="st0" d="M69.78,110.87c0.46,0,0.83-0.37,0.83-0.83c0-0.46-0.37-0.83-0.83-0.83c-0.46,0-0.83,0.37-0.83,0.83   C68.95,110.5,69.32,110.87,69.78,110.87"></path>
	<path class="st0" d="M53.12,110.87c0.46,0,0.83-0.37,0.83-0.83c0-0.46-0.37-0.83-0.83-0.83c-0.46,0-0.83,0.37-0.83,0.83   C52.28,110.5,52.66,110.87,53.12,110.87"></path>
	<path class="st1" d="M53.12,110.04v4.98c4.39,1.96,9.07,3.34,13.93,4.06h2.74v-9.04H53.12z"></path>
	<path class="st0" d="M77.28,119.21c0.46,0,0.83-0.37,0.83-0.83c0-0.46-0.37-0.83-0.83-0.83c-0.46,0-0.83,0.37-0.83,0.83   C76.44,118.83,76.82,119.21,77.28,119.21"></path>
	<path class="st0" d="M85.61,119.21c0.46,0,0.83-0.37,0.83-0.83c0-0.46-0.37-0.83-0.83-0.83c-0.46,0-0.83,0.37-0.83,0.83   C84.78,118.83,85.15,119.21,85.61,119.21"></path>
	<path class="st0" d="M81.45,115.04c0.46,0,0.83-0.37,0.83-0.83c0-0.46-0.37-0.83-0.83-0.83c-0.46,0-0.83,0.37-0.83,0.83   C80.61,114.67,80.98,115.04,81.45,115.04"></path>
	<path class="st0" d="M73.11,115.04c0.46,0,0.83-0.37,0.83-0.83c0-0.46-0.37-0.83-0.83-0.83c-0.46,0-0.83,0.37-0.83,0.83   C72.28,114.67,72.65,115.04,73.11,115.04"></path>
	<path class="st0" d="M68.95,119.21c0.46,0,0.83-0.37,0.83-0.83c0-0.46-0.37-0.83-0.83-0.83c-0.46,0-0.83,0.37-0.83,0.83   C68.11,118.83,68.49,119.21,68.95,119.21"></path>
	<path class="st0" d="M77.28,110.87c0.46,0,0.83-0.37,0.83-0.83c0-0.46-0.37-0.83-0.83-0.83c-0.46,0-0.83,0.37-0.83,0.83   C76.44,110.5,76.82,110.87,77.28,110.87"></path>
	<path class="st0" d="M85.61,110.87c0.46,0,0.83-0.37,0.83-0.83c0-0.46-0.37-0.83-0.83-0.83c-0.46,0-0.83,0.37-0.83,0.83   C84.78,110.5,85.15,110.87,85.61,110.87"></path>
	<path class="st0" d="M68.95,110.87c0.46,0,0.83-0.37,0.83-0.83c0-0.46-0.37-0.83-0.83-0.83c-0.46,0-0.83,0.37-0.83,0.83   C68.11,110.5,68.49,110.87,68.95,110.87"></path>
	<path class="st1" d="M68.95,110.04v9.04h13.5c1.07-0.16,2.12-0.34,3.16-0.56v-8.48H68.95z"></path>
	<path class="st0" d="M93.11,119.21c0.46,0,0.83-0.37,0.83-0.83c0-0.46-0.37-0.83-0.83-0.83c-0.46,0-0.83,0.37-0.83,0.83   C92.27,118.83,92.65,119.21,93.11,119.21"></path>
	<path class="st0" d="M101.44,119.21c0.46,0,0.83-0.37,0.83-0.83c0-0.46-0.37-0.83-0.83-0.83c-0.46,0-0.83,0.37-0.83,0.83   C100.61,118.83,100.98,119.21,101.44,119.21"></path>
	<path class="st0" d="M97.27,115.04c0.46,0,0.83-0.37,0.83-0.83c0-0.46-0.37-0.83-0.83-0.83c-0.46,0-0.83,0.37-0.83,0.83   C96.44,114.67,96.81,115.04,97.27,115.04"></path>
	<path class="st0" d="M88.94,115.04c0.46,0,0.83-0.37,0.83-0.83c0-0.46-0.37-0.83-0.83-0.83c-0.46,0-0.83,0.37-0.83,0.83   C88.11,114.67,88.48,115.04,88.94,115.04"></path>
	<path class="st0" d="M84.77,119.21c0.46,0,0.83-0.37,0.83-0.83c0-0.46-0.37-0.83-0.83-0.83c-0.46,0-0.83,0.37-0.83,0.83   C83.94,118.83,84.31,119.21,84.77,119.21"></path>
	<path class="st0" d="M93.11,110.87c0.46,0,0.83-0.37,0.83-0.83c0-0.46-0.37-0.83-0.83-0.83c-0.46,0-0.83,0.37-0.83,0.83   C92.27,110.5,92.65,110.87,93.11,110.87"></path>
	<path class="st0" d="M101.44,110.87c0.46,0,0.83-0.37,0.83-0.83c0-0.46-0.37-0.83-0.83-0.83c-0.46,0-0.83,0.37-0.83,0.83   C100.61,110.5,100.98,110.87,101.44,110.87"></path>
	<path class="st0" d="M84.77,110.87c0.46,0,0.83-0.37,0.83-0.83c0-0.46-0.37-0.83-0.83-0.83c-0.46,0-0.83,0.37-0.83,0.83   C83.94,110.5,84.31,110.87,84.77,110.87"></path>
	<path class="st1" d="M84.77,110.04v8.65c6.01-1.14,11.62-3.27,16.67-6.2v-2.45H84.77z"></path>
	<path class="st0" d="M100.6,110.87c0.46,0,0.83-0.37,0.83-0.83c0-0.46-0.37-0.83-0.83-0.83c-0.46,0-0.83,0.37-0.83,0.83   C99.77,110.5,100.14,110.87,100.6,110.87"></path>
	<path class="st1" d="M100.6,110.04v2.93c1.62-0.9,3.18-1.88,4.68-2.93H100.6z"></path>
	<path class="st0" d="M29.8,103.38c0.46,0,0.83-0.37,0.83-0.83c0-0.46-0.37-0.83-0.83-0.83c-0.46,0-0.83,0.37-0.83,0.83   C28.96,103.01,29.34,103.38,29.8,103.38"></path>
	<path class="st0" d="M38.13,103.38c0.46,0,0.83-0.37,0.83-0.83c0-0.46-0.37-0.83-0.83-0.83c-0.46,0-0.83,0.37-0.83,0.83   C37.3,103.01,37.67,103.38,38.13,103.38"></path>
	<path class="st0" d="M33.96,99.21c0.46,0,0.83-0.37,0.83-0.83c0-0.46-0.37-0.83-0.83-0.83c-0.46,0-0.83,0.37-0.83,0.83   C33.13,98.84,33.5,99.21,33.96,99.21"></path>
	<path class="st0" d="M29.8,95.05c0.46,0,0.83-0.37,0.83-0.83c0-0.46-0.37-0.83-0.83-0.83c-0.46,0-0.83,0.37-0.83,0.83   C28.96,94.67,29.34,95.05,29.8,95.05"></path>
	<path class="st0" d="M38.13,95.05c0.46,0,0.83-0.37,0.83-0.83c0-0.46-0.37-0.83-0.83-0.83c-0.46,0-0.83,0.37-0.83,0.83   C37.3,94.67,37.67,95.05,38.13,95.05"></path>
	<path class="st1" d="M29.42,94.21c2.44,3.98,5.37,7.59,8.71,10.76V94.21H29.42z"></path>
	<path class="st0" d="M45.62,111.71c0.46,0,0.83-0.37,0.83-0.83c0-0.46-0.37-0.83-0.83-0.83c-0.46,0-0.83,0.37-0.83,0.83   C44.79,111.34,45.16,111.71,45.62,111.71"></path>
	<path class="st0" d="M53.96,111.71c0.46,0,0.83-0.37,0.83-0.83c0-0.46-0.37-0.83-0.83-0.83c-0.46,0-0.83,0.37-0.83,0.83   C53.12,111.34,53.5,111.71,53.96,111.71"></path>
	<path class="st0" d="M45.62,103.38c0.46,0,0.83-0.37,0.83-0.83c0-0.46-0.37-0.83-0.83-0.83c-0.46,0-0.83,0.37-0.83,0.83   C44.79,103.01,45.16,103.38,45.62,103.38"></path>
	<path class="st0" d="M53.96,103.38c0.46,0,0.83-0.37,0.83-0.83c0-0.46-0.37-0.83-0.83-0.83c-0.46,0-0.83,0.37-0.83,0.83   C53.12,103.01,53.5,103.38,53.96,103.38"></path>
	<path class="st0" d="M49.79,107.55c0.46,0,0.83-0.37,0.83-0.83c0-0.46-0.37-0.83-0.83-0.83c-0.46,0-0.83,0.37-0.83,0.83   C48.96,107.17,49.33,107.55,49.79,107.55"></path>
	<path class="st0" d="M41.46,107.55c0.46,0,0.83-0.37,0.83-0.83c0-0.46-0.37-0.83-0.83-0.83c-0.46,0-0.83,0.37-0.83,0.83   C40.62,107.17,41,107.55,41.46,107.55"></path>
	<path class="st0" d="M49.79,99.21c0.46,0,0.83-0.37,0.83-0.83c0-0.46-0.37-0.83-0.83-0.83c-0.46,0-0.83,0.37-0.83,0.83   C48.96,98.84,49.33,99.21,49.79,99.21"></path>
	<path class="st0" d="M41.46,99.21c0.46,0,0.83-0.37,0.83-0.83c0-0.46-0.37-0.83-0.83-0.83c-0.46,0-0.83,0.37-0.83,0.83   C40.62,98.84,41,99.21,41.46,99.21"></path>
	<path class="st0" d="M37.29,111.71c0.46,0,0.83-0.37,0.83-0.83c0-0.46-0.37-0.83-0.83-0.83c-0.46,0-0.83,0.37-0.83,0.83   C36.46,111.34,36.83,111.71,37.29,111.71"></path>
	<path class="st0" d="M37.29,103.38c0.46,0,0.83-0.37,0.83-0.83c0-0.46-0.37-0.83-0.83-0.83c-0.46,0-0.83,0.37-0.83,0.83   C36.46,103.01,36.83,103.38,37.29,103.38"></path>
	<path class="st0" d="M45.62,95.05c0.46,0,0.83-0.37,0.83-0.83c0-0.46-0.37-0.83-0.83-0.83c-0.46,0-0.83,0.37-0.83,0.83   C44.79,94.67,45.16,95.05,45.62,95.05"></path>
	<path class="st0" d="M53.96,95.05c0.46,0,0.83-0.37,0.83-0.83c0-0.46-0.37-0.83-0.83-0.83c-0.46,0-0.83,0.37-0.83,0.83   C53.12,94.67,53.5,95.05,53.96,95.05"></path>
	<path class="st0" d="M37.29,95.05c0.46,0,0.83-0.37,0.83-0.83c0-0.46-0.37-0.83-0.83-0.83c-0.46,0-0.83,0.37-0.83,0.83   C36.46,94.67,36.83,95.05,37.29,95.05"></path>
	<path class="st1" d="M37.29,94.21v9.95c2.53,2.51,5.3,4.76,8.27,6.72h8.39V94.21H37.29z"></path>
	<path class="st0" d="M61.45,111.71c0.46,0,0.83-0.37,0.83-0.83c0-0.46-0.37-0.83-0.83-0.83c-0.46,0-0.83,0.37-0.83,0.83   C60.62,111.34,60.99,111.71,61.45,111.71"></path>
	<path class="st0" d="M69.78,111.71c0.46,0,0.83-0.37,0.83-0.83c0-0.46-0.37-0.83-0.83-0.83c-0.46,0-0.83,0.37-0.83,0.83   C68.95,111.34,69.32,111.71,69.78,111.71"></path>
	<path class="st0" d="M61.45,103.38c0.46,0,0.83-0.37,0.83-0.83c0-0.46-0.37-0.83-0.83-0.83c-0.46,0-0.83,0.37-0.83,0.83   C60.62,103.01,60.99,103.38,61.45,103.38"></path>
	<path class="st0" d="M69.78,103.38c0.46,0,0.83-0.37,0.83-0.83c0-0.46-0.37-0.83-0.83-0.83c-0.46,0-0.83,0.37-0.83,0.83   C68.95,103.01,69.32,103.38,69.78,103.38"></path>
	<path class="st0" d="M65.62,107.55c0.46,0,0.83-0.37,0.83-0.83c0-0.46-0.37-0.83-0.83-0.83c-0.46,0-0.83,0.37-0.83,0.83   C64.78,107.17,65.16,107.55,65.62,107.55"></path>
	<path class="st0" d="M57.28,107.55c0.46,0,0.83-0.37,0.83-0.83c0-0.46-0.37-0.83-0.83-0.83c-0.46,0-0.83,0.37-0.83,0.83   C56.45,107.17,56.82,107.55,57.28,107.55"></path>
	<path class="st0" d="M65.62,99.21c0.46,0,0.83-0.37,0.83-0.83c0-0.46-0.37-0.83-0.83-0.83c-0.46,0-0.83,0.37-0.83,0.83   C64.78,98.84,65.16,99.21,65.62,99.21"></path>
	<path class="st0" d="M57.28,99.21c0.46,0,0.83-0.37,0.83-0.83c0-0.46-0.37-0.83-0.83-0.83c-0.46,0-0.83,0.37-0.83,0.83   C56.45,98.84,56.82,99.21,57.28,99.21"></path>
	<path class="st0" d="M53.12,111.71c0.46,0,0.83-0.37,0.83-0.83c0-0.46-0.37-0.83-0.83-0.83c-0.46,0-0.83,0.37-0.83,0.83   C52.28,111.34,52.66,111.71,53.12,111.71"></path>
	<path class="st0" d="M53.12,103.38c0.46,0,0.83-0.37,0.83-0.83c0-0.46-0.37-0.83-0.83-0.83c-0.46,0-0.83,0.37-0.83,0.83   C52.28,103.01,52.66,103.38,53.12,103.38"></path>
	<path class="st0" d="M61.45,95.05c0.46,0,0.83-0.37,0.83-0.83c0-0.46-0.37-0.83-0.83-0.83c-0.46,0-0.83,0.37-0.83,0.83   C60.62,94.67,60.99,95.05,61.45,95.05"></path>
	<path class="st0" d="M69.78,95.05c0.46,0,0.83-0.37,0.83-0.83c0-0.46-0.37-0.83-0.83-0.83c-0.46,0-0.83,0.37-0.83,0.83   C68.95,94.67,69.32,95.05,69.78,95.05"></path>
	<path class="st0" d="M53.12,95.05c0.46,0,0.83-0.37,0.83-0.83c0-0.46-0.37-0.83-0.83-0.83c-0.46,0-0.83,0.37-0.83,0.83   C52.28,94.67,52.66,95.05,53.12,95.05"></path>
	<path class="st1" d="M53.12,94.21v16.67h16.67v-10.64c-5.44-0.8-10.52-2.91-14.88-6.03H53.12z"></path>
	<path class="st0" d="M77.28,111.71c0.46,0,0.83-0.37,0.83-0.83c0-0.46-0.37-0.83-0.83-0.83c-0.46,0-0.83,0.37-0.83,0.83   C76.44,111.34,76.82,111.71,77.28,111.71"></path>
	<path class="st0" d="M85.61,111.71c0.46,0,0.83-0.37,0.83-0.83c0-0.46-0.37-0.83-0.83-0.83c-0.46,0-0.83,0.37-0.83,0.83   C84.78,111.34,85.15,111.71,85.61,111.71"></path>
	<path class="st0" d="M77.28,103.38c0.46,0,0.83-0.37,0.83-0.83c0-0.46-0.37-0.83-0.83-0.83c-0.46,0-0.83,0.37-0.83,0.83   C76.44,103.01,76.82,103.38,77.28,103.38"></path>
	<path class="st0" d="M85.61,103.38c0.46,0,0.83-0.37,0.83-0.83c0-0.46-0.37-0.83-0.83-0.83c-0.46,0-0.83,0.37-0.83,0.83   C84.78,103.01,85.15,103.38,85.61,103.38"></path>
	<path class="st0" d="M81.45,107.55c0.46,0,0.83-0.37,0.83-0.83c0-0.46-0.37-0.83-0.83-0.83c-0.46,0-0.83,0.37-0.83,0.83   C80.61,107.17,80.98,107.55,81.45,107.55"></path>
	<path class="st0" d="M73.11,107.55c0.46,0,0.83-0.37,0.83-0.83c0-0.46-0.37-0.83-0.83-0.83c-0.46,0-0.83,0.37-0.83,0.83   C72.28,107.17,72.65,107.55,73.11,107.55"></path>
	<path class="st0" d="M81.45,99.21c0.46,0,0.83-0.37,0.83-0.83c0-0.46-0.37-0.83-0.83-0.83c-0.46,0-0.83,0.37-0.83,0.83   C80.61,98.84,80.98,99.21,81.45,99.21"></path>
	<path class="st0" d="M73.11,99.21c0.46,0,0.83-0.37,0.83-0.83c0-0.46-0.37-0.83-0.83-0.83c-0.46,0-0.83,0.37-0.83,0.83   C72.28,98.84,72.65,99.21,73.11,99.21"></path>
	<path class="st0" d="M68.95,111.71c0.46,0,0.83-0.37,0.83-0.83c0-0.46-0.37-0.83-0.83-0.83c-0.46,0-0.83,0.37-0.83,0.83   C68.11,111.34,68.49,111.71,68.95,111.71"></path>
	<path class="st0" d="M68.95,103.38c0.46,0,0.83-0.37,0.83-0.83c0-0.46-0.37-0.83-0.83-0.83c-0.46,0-0.83,0.37-0.83,0.83   C68.11,103.01,68.49,103.38,68.95,103.38"></path>
	<path class="st1" d="M79.39,100.29c-3.57,0.48-7.08,0.4-10.44-0.18v10.77h16.67V98.85C83.62,99.51,81.54,100,79.39,100.29"></path>
	<path class="st0" d="M93.11,111.71c0.46,0,0.83-0.37,0.83-0.83c0-0.46-0.37-0.83-0.83-0.83c-0.46,0-0.83,0.37-0.83,0.83   C92.27,111.34,92.65,111.71,93.11,111.71"></path>
	<path class="st0" d="M101.44,111.71c0.46,0,0.83-0.37,0.83-0.83c0-0.46-0.37-0.83-0.83-0.83c-0.46,0-0.83,0.37-0.83,0.83   C100.61,111.34,100.98,111.71,101.44,111.71"></path>
	<path class="st0" d="M93.11,103.38c0.46,0,0.83-0.37,0.83-0.83c0-0.46-0.37-0.83-0.83-0.83c-0.46,0-0.83,0.37-0.83,0.83   C92.27,103.01,92.65,103.38,93.11,103.38"></path>
	<path class="st0" d="M101.44,103.38c0.46,0,0.83-0.37,0.83-0.83c0-0.46-0.37-0.83-0.83-0.83c-0.46,0-0.83,0.37-0.83,0.83   C100.61,103.01,100.98,103.38,101.44,103.38"></path>
	<path class="st0" d="M97.27,107.55c0.46,0,0.83-0.37,0.83-0.83c0-0.46-0.37-0.83-0.83-0.83c-0.46,0-0.83,0.37-0.83,0.83   C96.44,107.17,96.81,107.55,97.27,107.55"></path>
	<path class="st0" d="M88.94,107.55c0.46,0,0.83-0.37,0.83-0.83c0-0.46-0.37-0.83-0.83-0.83c-0.46,0-0.83,0.37-0.83,0.83   C88.11,107.17,88.48,107.55,88.94,107.55"></path>
	<path class="st0" d="M97.27,99.21c0.46,0,0.83-0.37,0.83-0.83c0-0.46-0.37-0.83-0.83-0.83c-0.46,0-0.83,0.37-0.83,0.83   C96.44,98.84,96.81,99.21,97.27,99.21"></path>
	<path class="st0" d="M88.94,99.21c0.46,0,0.83-0.37,0.83-0.83c0-0.46-0.37-0.83-0.83-0.83c-0.46,0-0.83,0.37-0.83,0.83   C88.11,98.84,88.48,99.21,88.94,99.21"></path>
	<path class="st0" d="M84.77,111.71c0.46,0,0.83-0.37,0.83-0.83c0-0.46-0.37-0.83-0.83-0.83c-0.46,0-0.83,0.37-0.83,0.83   C83.94,111.34,84.31,111.71,84.77,111.71"></path>
	<path class="st0" d="M84.77,103.38c0.46,0,0.83-0.37,0.83-0.83c0-0.46-0.37-0.83-0.83-0.83c-0.46,0-0.83,0.37-0.83,0.83   C83.94,103.01,84.31,103.38,84.77,103.38"></path>
	<path class="st0" d="M93.11,95.05c0.46,0,0.83-0.37,0.83-0.83c0-0.46-0.37-0.83-0.83-0.83c-0.46,0-0.83,0.37-0.83,0.83   C92.27,94.67,92.65,95.05,93.11,95.05"></path>
	<path class="st0" d="M101.44,95.05c0.46,0,0.83-0.37,0.83-0.83c0-0.46-0.37-0.83-0.83-0.83c-0.46,0-0.83,0.37-0.83,0.83   C100.61,94.67,100.98,95.05,101.44,95.05"></path>
	<path class="st0" d="M84.77,95.05c0.46,0,0.83-0.37,0.83-0.83c0-0.46-0.37-0.83-0.83-0.83c-0.46,0-0.83,0.37-0.83,0.83   C83.94,94.67,84.31,95.05,84.77,95.05"></path>
	<path class="st1" d="M94.69,94.21c-2.96,2.13-6.3,3.8-9.92,4.9v11.76h16.67V94.21H94.69z"></path>
	<path class="st0" d="M108.93,111.71c0.46,0,0.83-0.37,0.83-0.83c0-0.46-0.37-0.83-0.83-0.83c-0.46,0-0.83,0.37-0.83,0.83   C108.1,111.34,108.47,111.71,108.93,111.71"></path>
	<path class="st0" d="M117.27,111.71c0.46,0,0.83-0.37,0.83-0.83c0-0.46-0.37-0.83-0.83-0.83c-0.46,0-0.83,0.37-0.83,0.83   C116.43,111.34,116.81,111.71,117.27,111.71"></path>
	<path class="st0" d="M108.93,103.38c0.46,0,0.83-0.37,0.83-0.83c0-0.46-0.37-0.83-0.83-0.83c-0.46,0-0.83,0.37-0.83,0.83   C108.1,103.01,108.47,103.38,108.93,103.38"></path>
	<path class="st0" d="M117.27,103.38c0.46,0,0.83-0.37,0.83-0.83c0-0.46-0.37-0.83-0.83-0.83c-0.46,0-0.83,0.37-0.83,0.83   C116.43,103.01,116.81,103.38,117.27,103.38"></path>
	<path class="st0" d="M113.1,107.55c0.46,0,0.83-0.37,0.83-0.83c0-0.46-0.37-0.83-0.83-0.83c-0.46,0-0.83,0.37-0.83,0.83   C112.27,107.17,112.64,107.55,113.1,107.55"></path>
	<path class="st0" d="M104.77,107.55c0.46,0,0.83-0.37,0.83-0.83c0-0.46-0.37-0.83-0.83-0.83c-0.46,0-0.83,0.37-0.83,0.83   C103.93,107.17,104.31,107.55,104.77,107.55"></path>
	<path class="st0" d="M113.1,99.21c0.46,0,0.83-0.37,0.83-0.83c0-0.46-0.37-0.83-0.83-0.83c-0.46,0-0.83,0.37-0.83,0.83   C112.27,98.84,112.64,99.21,113.1,99.21"></path>
	<path class="st0" d="M104.77,99.21c0.46,0,0.83-0.37,0.83-0.83c0-0.46-0.37-0.83-0.83-0.83c-0.46,0-0.83,0.37-0.83,0.83   C103.93,98.84,104.31,99.21,104.77,99.21"></path>
	<path class="st0" d="M100.6,111.71c0.46,0,0.83-0.37,0.83-0.83c0-0.46-0.37-0.83-0.83-0.83c-0.46,0-0.83,0.37-0.83,0.83   C99.77,111.34,100.14,111.71,100.6,111.71"></path>
	<path class="st0" d="M100.6,103.38c0.46,0,0.83-0.37,0.83-0.83c0-0.46-0.37-0.83-0.83-0.83c-0.46,0-0.83,0.37-0.83,0.83   C99.77,103.01,100.14,103.38,100.6,103.38"></path>
	<path class="st0" d="M108.93,95.05c0.46,0,0.83-0.37,0.83-0.83c0-0.46-0.37-0.83-0.83-0.83c-0.46,0-0.83,0.37-0.83,0.83   C108.1,94.67,108.47,95.05,108.93,95.05"></path>
	<path class="st0" d="M117.27,95.05c0.46,0,0.83-0.37,0.83-0.83c0-0.46-0.37-0.83-0.83-0.83c-0.46,0-0.83,0.37-0.83,0.83   C116.43,94.67,116.81,95.05,117.27,95.05"></path>
	<path class="st0" d="M100.6,95.05c0.46,0,0.83-0.37,0.83-0.83c0-0.46-0.37-0.83-0.83-0.83c-0.46,0-0.83,0.37-0.83,0.83   C99.77,94.67,100.14,95.05,100.6,95.05"></path>
	<path class="st1" d="M100.6,94.21v16.67h3.45c5.11-3.37,9.58-7.59,13.22-12.42v-4.24H100.6z"></path>
	<path class="st0" d="M120.59,99.21c0.46,0,0.83-0.37,0.83-0.83c0-0.46-0.37-0.83-0.83-0.83c-0.46,0-0.83,0.37-0.83,0.83   C119.76,98.84,120.13,99.21,120.59,99.21"></path>
	<path class="st0" d="M116.43,95.05c0.46,0,0.83-0.37,0.83-0.83c0-0.46-0.37-0.83-0.83-0.83c-0.46,0-0.83,0.37-0.83,0.83   C115.59,94.67,115.97,95.05,116.43,95.05"></path>
	<path class="st1" d="M116.43,94.21v5.33c1.35-1.7,2.59-3.48,3.73-5.33H116.43z"></path>
	<path class="st0" d="M29.8,95.89c0.46,0,0.83-0.37,0.83-0.83c0-0.46-0.37-0.83-0.83-0.83c-0.46,0-0.83,0.37-0.83,0.83   C28.96,95.51,29.34,95.89,29.8,95.89"></path>
	<path class="st0" d="M38.13,95.89c0.46,0,0.83-0.37,0.83-0.83c0-0.46-0.37-0.83-0.83-0.83c-0.46,0-0.83,0.37-0.83,0.83   C37.3,95.51,37.67,95.89,38.13,95.89"></path>
	<path class="st0" d="M29.8,87.55c0.46,0,0.83-0.37,0.83-0.83c0-0.46-0.37-0.83-0.83-0.83c-0.46,0-0.83,0.37-0.83,0.83   C28.96,87.18,29.34,87.55,29.8,87.55"></path>
	<path class="st0" d="M38.13,87.55c0.46,0,0.83-0.37,0.83-0.83c0-0.46-0.37-0.83-0.83-0.83c-0.46,0-0.83,0.37-0.83,0.83   C37.3,87.18,37.67,87.55,38.13,87.55"></path>
	<path class="st0" d="M33.96,91.72c0.46,0,0.83-0.37,0.83-0.83c0-0.46-0.37-0.83-0.83-0.83c-0.46,0-0.83,0.37-0.83,0.83   C33.13,91.35,33.5,91.72,33.96,91.72"></path>
	<path class="st0" d="M25.63,91.72c0.46,0,0.83-0.37,0.83-0.83c0-0.46-0.37-0.83-0.83-0.83c-0.46,0-0.83,0.37-0.83,0.83   C24.8,91.35,25.17,91.72,25.63,91.72"></path>
	<path class="st0" d="M33.96,83.39c0.46,0,0.83-0.37,0.83-0.83c0-0.46-0.37-0.83-0.83-0.83c-0.46,0-0.83,0.37-0.83,0.83   C33.13,83.01,33.5,83.39,33.96,83.39"></path>
	<path class="st0" d="M25.63,83.39c0.46,0,0.83-0.37,0.83-0.83c0-0.46-0.37-0.83-0.83-0.83c-0.46,0-0.83,0.37-0.83,0.83   C24.8,83.01,25.17,83.39,25.63,83.39"></path>
	<path class="st0" d="M29.8,79.22c0.46,0,0.83-0.37,0.83-0.83c0-0.46-0.37-0.83-0.83-0.83c-0.46,0-0.83,0.37-0.83,0.83   C28.96,78.85,29.34,79.22,29.8,79.22"></path>
	<path class="st0" d="M38.13,79.22c0.46,0,0.83-0.37,0.83-0.83c0-0.46-0.37-0.83-0.83-0.83c-0.46,0-0.83,0.37-0.83,0.83   C37.3,78.85,37.67,79.22,38.13,79.22"></path>
	<path class="st1" d="M22.97,78.39c1.39,6.05,3.78,11.66,6.98,16.67h8.18V78.39H22.97z"></path>
	<path class="st0" d="M45.62,95.89c0.46,0,0.83-0.37,0.83-0.83c0-0.46-0.37-0.83-0.83-0.83c-0.46,0-0.83,0.37-0.83,0.83   C44.79,95.51,45.16,95.89,45.62,95.89"></path>
	<path class="st0" d="M53.96,95.89c0.46,0,0.83-0.37,0.83-0.83c0-0.46-0.37-0.83-0.83-0.83c-0.46,0-0.83,0.37-0.83,0.83   C53.12,95.51,53.5,95.89,53.96,95.89"></path>
	<path class="st0" d="M45.62,87.55c0.46,0,0.83-0.37,0.83-0.83c0-0.46-0.37-0.83-0.83-0.83c-0.46,0-0.83,0.37-0.83,0.83   C44.79,87.18,45.16,87.55,45.62,87.55"></path>
	<path class="st0" d="M53.96,87.55c0.46,0,0.83-0.37,0.83-0.83c0-0.46-0.37-0.83-0.83-0.83c-0.46,0-0.83,0.37-0.83,0.83   C53.12,87.18,53.5,87.55,53.96,87.55"></path>
	<path class="st0" d="M49.79,91.72c0.46,0,0.83-0.37,0.83-0.83c0-0.46-0.37-0.83-0.83-0.83c-0.46,0-0.83,0.37-0.83,0.83   C48.96,91.35,49.33,91.72,49.79,91.72"></path>
	<path class="st0" d="M41.46,91.72c0.46,0,0.83-0.37,0.83-0.83c0-0.46-0.37-0.83-0.83-0.83c-0.46,0-0.83,0.37-0.83,0.83   C40.62,91.35,41,91.72,41.46,91.72"></path>
	<path class="st0" d="M49.79,83.39c0.46,0,0.83-0.37,0.83-0.83c0-0.46-0.37-0.83-0.83-0.83c-0.46,0-0.83,0.37-0.83,0.83   C48.96,83.01,49.33,83.39,49.79,83.39"></path>
	<path class="st0" d="M41.46,83.39c0.46,0,0.83-0.37,0.83-0.83c0-0.46-0.37-0.83-0.83-0.83c-0.46,0-0.83,0.37-0.83,0.83   C40.62,83.01,41,83.39,41.46,83.39"></path>
	<path class="st0" d="M37.29,95.89c0.46,0,0.83-0.37,0.83-0.83c0-0.46-0.37-0.83-0.83-0.83c-0.46,0-0.83,0.37-0.83,0.83   C36.46,95.51,36.83,95.89,37.29,95.89"></path>
	<path class="st0" d="M37.29,87.55c0.46,0,0.83-0.37,0.83-0.83c0-0.46-0.37-0.83-0.83-0.83c-0.46,0-0.83,0.37-0.83,0.83   C36.46,87.18,36.83,87.55,37.29,87.55"></path>
	<path class="st0" d="M45.62,79.22c0.46,0,0.83-0.37,0.83-0.83c0-0.46-0.37-0.83-0.83-0.83c-0.46,0-0.83,0.37-0.83,0.83   C44.79,78.85,45.16,79.22,45.62,79.22"></path>
	<path class="st0" d="M53.96,79.22c0.46,0,0.83-0.37,0.83-0.83c0-0.46-0.37-0.83-0.83-0.83c-0.46,0-0.83,0.37-0.83,0.83   C53.12,78.85,53.5,79.22,53.96,79.22"></path>
	<path class="st0" d="M37.29,79.22c0.46,0,0.83-0.37,0.83-0.83c0-0.46-0.37-0.83-0.83-0.83c-0.46,0-0.83,0.37-0.83,0.83   C36.46,78.85,36.83,79.22,37.29,79.22"></path>
	<path class="st1" d="M37.29,78.39v16.67h16.67v-1.55c-4.97-3.83-8.9-9.03-11.16-15.12H37.29z"></path>
	<path class="st0" d="M57.28,91.72c0.46,0,0.83-0.37,0.83-0.83c0-0.46-0.37-0.83-0.83-0.83c-0.46,0-0.83,0.37-0.83,0.83   C56.45,91.35,56.82,91.72,57.28,91.72"></path>
	<path class="st0" d="M53.12,95.89c0.46,0,0.83-0.37,0.83-0.83c0-0.46-0.37-0.83-0.83-0.83c-0.46,0-0.83,0.37-0.83,0.83   C52.28,95.51,52.66,95.89,53.12,95.89"></path>
	<path class="st1" d="M53.12,95.05h3.02c-1.04-0.68-2.05-1.42-3.02-2.21V95.05z"></path>
	<path class="st0" d="M93.11,95.89c0.46,0,0.83-0.37,0.83-0.83c0-0.46-0.37-0.83-0.83-0.83c-0.46,0-0.83,0.37-0.83,0.83   C92.27,95.51,92.65,95.89,93.11,95.89"></path>
	<path class="st0" d="M101.44,95.89c0.46,0,0.83-0.37,0.83-0.83c0-0.46-0.37-0.83-0.83-0.83c-0.46,0-0.83,0.37-0.83,0.83   C100.61,95.51,100.98,95.89,101.44,95.89"></path>
	<path class="st0" d="M93.11,87.55c0.46,0,0.83-0.37,0.83-0.83c0-0.46-0.37-0.83-0.83-0.83c-0.46,0-0.83,0.37-0.83,0.83   C92.27,87.18,92.65,87.55,93.11,87.55"></path>
	<path class="st0" d="M101.44,87.55c0.46,0,0.83-0.37,0.83-0.83c0-0.46-0.37-0.83-0.83-0.83c-0.46,0-0.83,0.37-0.83,0.83   C100.61,87.18,100.98,87.55,101.44,87.55"></path>
	<path class="st0" d="M97.27,91.72c0.46,0,0.83-0.37,0.83-0.83c0-0.46-0.37-0.83-0.83-0.83c-0.46,0-0.83,0.37-0.83,0.83   C96.44,91.35,96.81,91.72,97.27,91.72"></path>
	<path class="st1" d="M93.47,95.05h7.97v-7.24C99.19,90.61,96.51,93.06,93.47,95.05"></path>
	<path class="st0" d="M108.93,95.89c0.46,0,0.83-0.37,0.83-0.83c0-0.46-0.37-0.83-0.83-0.83c-0.46,0-0.83,0.37-0.83,0.83   C108.1,95.51,108.47,95.89,108.93,95.89"></path>
	<path class="st0" d="M117.27,95.89c0.46,0,0.83-0.37,0.83-0.83c0-0.46-0.37-0.83-0.83-0.83c-0.46,0-0.83,0.37-0.83,0.83   C116.43,95.51,116.81,95.89,117.27,95.89"></path>
	<path class="st0" d="M108.93,87.55c0.46,0,0.83-0.37,0.83-0.83c0-0.46-0.37-0.83-0.83-0.83c-0.46,0-0.83,0.37-0.83,0.83   C108.1,87.18,108.47,87.55,108.93,87.55"></path>
	<path class="st0" d="M117.27,87.55c0.46,0,0.83-0.37,0.83-0.83c0-0.46-0.37-0.83-0.83-0.83c-0.46,0-0.83,0.37-0.83,0.83   C116.43,87.18,116.81,87.55,117.27,87.55"></path>
	<path class="st0" d="M113.1,91.72c0.46,0,0.83-0.37,0.83-0.83c0-0.46-0.37-0.83-0.83-0.83c-0.46,0-0.83,0.37-0.83,0.83   C112.27,91.35,112.64,91.72,113.1,91.72"></path>
	<path class="st0" d="M104.77,91.72c0.46,0,0.83-0.37,0.83-0.83c0-0.46-0.37-0.83-0.83-0.83c-0.46,0-0.83,0.37-0.83,0.83   C103.93,91.35,104.31,91.72,104.77,91.72"></path>
	<path class="st0" d="M113.1,83.39c0.46,0,0.83-0.37,0.83-0.83c0-0.46-0.37-0.83-0.83-0.83c-0.46,0-0.83,0.37-0.83,0.83   C112.27,83.01,112.64,83.39,113.1,83.39"></path>
	<path class="st0" d="M104.77,83.39c0.46,0,0.83-0.37,0.83-0.83c0-0.46-0.37-0.83-0.83-0.83c-0.46,0-0.83,0.37-0.83,0.83   C103.93,83.01,104.31,83.39,104.77,83.39"></path>
	<path class="st0" d="M100.6,95.89c0.46,0,0.83-0.37,0.83-0.83c0-0.46-0.37-0.83-0.83-0.83c-0.46,0-0.83,0.37-0.83,0.83   C99.77,95.51,100.14,95.89,100.6,95.89"></path>
	<path class="st0" d="M100.6,87.55c0.46,0,0.83-0.37,0.83-0.83c0-0.46-0.37-0.83-0.83-0.83c-0.46,0-0.83,0.37-0.83,0.83   C99.77,87.18,100.14,87.55,100.6,87.55"></path>
	<path class="st0" d="M108.93,79.22c0.46,0,0.83-0.37,0.83-0.83c0-0.46-0.37-0.83-0.83-0.83c-0.46,0-0.83,0.37-0.83,0.83   C108.1,78.85,108.47,79.22,108.93,79.22"></path>
	<path class="st0" d="M117.27,79.22c0.46,0,0.83-0.37,0.83-0.83c0-0.46-0.37-0.83-0.83-0.83c-0.46,0-0.83,0.37-0.83,0.83   C116.43,78.85,116.81,79.22,117.27,79.22"></path>
	<path class="st0" d="M100.6,79.22c0.46,0,0.83-0.37,0.83-0.83c0-0.46-0.37-0.83-0.83-0.83c-0.46,0-0.83,0.37-0.83,0.83   C99.77,78.85,100.14,79.22,100.6,79.22"></path>
	<path class="st1" d="M106.8,78.39c-1.43,3.83-3.54,7.36-6.2,10.43v6.23h16.67V78.39H106.8z"></path>
	<path class="st0" d="M124.76,95.89c0.46,0,0.83-0.37,0.83-0.83c0-0.46-0.37-0.83-0.83-0.83c-0.46,0-0.83,0.37-0.83,0.83   C123.93,95.51,124.3,95.89,124.76,95.89"></path>
	<path class="st0" d="M124.76,87.55c0.46,0,0.83-0.37,0.83-0.83c0-0.46-0.37-0.83-0.83-0.83c-0.46,0-0.83,0.37-0.83,0.83   C123.93,87.18,124.3,87.55,124.76,87.55"></path>
	<path class="st0" d="M120.59,91.72c0.46,0,0.83-0.37,0.83-0.83c0-0.46-0.37-0.83-0.83-0.83c-0.46,0-0.83,0.37-0.83,0.83   C119.76,91.35,120.13,91.72,120.59,91.72"></path>
	<path class="st0" d="M120.59,83.39c0.46,0,0.83-0.37,0.83-0.83c0-0.46-0.37-0.83-0.83-0.83c-0.46,0-0.83,0.37-0.83,0.83   C119.76,83.01,120.13,83.39,120.59,83.39"></path>
	<path class="st0" d="M116.43,95.89c0.46,0,0.83-0.37,0.83-0.83c0-0.46-0.37-0.83-0.83-0.83c-0.46,0-0.83,0.37-0.83,0.83   C115.59,95.51,115.97,95.89,116.43,95.89"></path>
	<path class="st0" d="M116.43,87.55c0.46,0,0.83-0.37,0.83-0.83c0-0.46-0.37-0.83-0.83-0.83c-0.46,0-0.83,0.37-0.83,0.83   C115.59,87.18,115.97,87.55,116.43,87.55"></path>
	<path class="st0" d="M124.76,79.22c0.46,0,0.83-0.37,0.83-0.83c0-0.46-0.37-0.83-0.83-0.83c-0.46,0-0.83,0.37-0.83,0.83   C123.93,78.85,124.3,79.22,124.76,79.22"></path>
	<path class="st0" d="M116.43,79.22c0.46,0,0.83-0.37,0.83-0.83c0-0.46-0.37-0.83-0.83-0.83c-0.46,0-0.83,0.37-0.83,0.83   C115.59,78.85,115.97,79.22,116.43,79.22"></path>
	<path class="st1" d="M116.43,78.39v16.67h3.2c3.24-5.07,5.63-10.7,7-16.67H116.43z"></path>
	<path class="st0" d="M29.8,80.06c0.46,0,0.83-0.37,0.83-0.83c0-0.46-0.37-0.83-0.83-0.83c-0.46,0-0.83,0.37-0.83,0.83   C28.96,79.69,29.34,80.06,29.8,80.06"></path>
	<path class="st0" d="M38.13,80.06c0.46,0,0.83-0.37,0.83-0.83c0-0.46-0.37-0.83-0.83-0.83c-0.46,0-0.83,0.37-0.83,0.83   C37.3,79.69,37.67,80.06,38.13,80.06"></path>
	<path class="st0" d="M29.8,71.73c0.46,0,0.83-0.37,0.83-0.83c0-0.46-0.37-0.83-0.83-0.83c-0.46,0-0.83,0.37-0.83,0.83   C28.96,71.35,29.34,71.73,29.8,71.73"></path>
	<path class="st0" d="M38.13,71.73c0.46,0,0.83-0.37,0.83-0.83c0-0.46-0.37-0.83-0.83-0.83c-0.46,0-0.83,0.37-0.83,0.83   C37.3,71.35,37.67,71.73,38.13,71.73"></path>
	<path class="st0" d="M33.96,75.89c0.46,0,0.83-0.37,0.83-0.83c0-0.46-0.37-0.83-0.83-0.83c-0.46,0-0.83,0.37-0.83,0.83   C33.13,75.52,33.5,75.89,33.96,75.89"></path>
	<path class="st0" d="M25.63,75.89c0.46,0,0.83-0.37,0.83-0.83c0-0.46-0.37-0.83-0.83-0.83c-0.46,0-0.83,0.37-0.83,0.83   C24.8,75.52,25.17,75.89,25.63,75.89"></path>
	<path class="st0" d="M21.46,80.06c0.46,0,0.83-0.37,0.83-0.83c0-0.46-0.37-0.83-0.83-0.83c-0.46,0-0.83,0.37-0.83,0.83   C20.63,79.69,21,80.06,21.46,80.06"></path>
	<path class="st0" d="M21.46,71.73c0.46,0,0.83-0.37,0.83-0.83c0-0.46-0.37-0.83-0.83-0.83c-0.46,0-0.83,0.37-0.83,0.83   C20.63,71.35,21,71.73,21.46,71.73"></path>
	<path class="st1" d="M22.12,73.77c0.26,1.86,0.61,3.68,1.05,5.46h14.96v-7.63L22.12,73.77z"></path>
	<path class="st0" d="M41.46,75.89c0.46,0,0.83-0.37,0.83-0.83c0-0.46-0.37-0.83-0.83-0.83c-0.46,0-0.83,0.37-0.83,0.83   C40.62,75.52,41,75.89,41.46,75.89"></path>
	<path class="st0" d="M37.29,80.06c0.46,0,0.83-0.37,0.83-0.83c0-0.46-0.37-0.83-0.83-0.83c-0.46,0-0.83,0.37-0.83,0.83   C36.46,79.69,36.83,80.06,37.29,80.06"></path>
	<path class="st0" d="M37.29,71.73c0.46,0,0.83-0.37,0.83-0.83c0-0.46-0.37-0.83-0.83-0.83c-0.46,0-0.83,0.37-0.83,0.83   C36.46,71.35,36.83,71.73,37.29,71.73"></path>
	<path class="st1" d="M37.29,71.71v7.52h5.83c-1.02-2.52-1.74-5.21-2.14-8.02L37.29,71.71z"></path>
	<path class="st0" d="M108.93,80.06c0.46,0,0.83-0.37,0.83-0.83c0-0.46-0.37-0.83-0.83-0.83c-0.46,0-0.83,0.37-0.83,0.83   C108.1,79.69,108.47,80.06,108.93,80.06"></path>
	<path class="st0" d="M117.27,80.06c0.46,0,0.83-0.37,0.83-0.83c0-0.46-0.37-0.83-0.83-0.83c-0.46,0-0.83,0.37-0.83,0.83   C116.43,79.69,116.81,80.06,117.27,80.06"></path>
	<path class="st0" d="M108.93,71.73c0.46,0,0.83-0.37,0.83-0.83c0-0.46-0.37-0.83-0.83-0.83c-0.46,0-0.83,0.37-0.83,0.83   C108.1,71.35,108.47,71.73,108.93,71.73"></path>
	<path class="st0" d="M117.27,71.73c0.46,0,0.83-0.37,0.83-0.83c0-0.46-0.37-0.83-0.83-0.83c-0.46,0-0.83,0.37-0.83,0.83   C116.43,71.35,116.81,71.73,117.27,71.73"></path>
	<path class="st0" d="M113.1,75.89c0.46,0,0.83-0.37,0.83-0.83c0-0.46-0.37-0.83-0.83-0.83c-0.46,0-0.83,0.37-0.83,0.83   C112.27,75.52,112.64,75.89,113.1,75.89"></path>
	<path class="st0" d="M113.1,67.56c0.46,0,0.83-0.37,0.83-0.83c0-0.46-0.37-0.83-0.83-0.83c-0.46,0-0.83,0.37-0.83,0.83   C112.27,67.19,112.64,67.56,113.1,67.56"></path>
	<path class="st0" d="M108.93,63.39c0.46,0,0.83-0.37,0.83-0.83c0-0.46-0.37-0.83-0.83-0.83c-0.46,0-0.83,0.37-0.83,0.83   C108.1,63.02,108.47,63.39,108.93,63.39"></path>
	<path class="st0" d="M117.27,63.39c0.46,0,0.83-0.37,0.83-0.83c0-0.46-0.37-0.83-0.83-0.83c-0.46,0-0.83,0.37-0.83,0.83   C116.43,63.02,116.81,63.39,117.27,63.39"></path>
	<path class="st1" d="M108.72,62.56c0.67,5.85-0.18,11.54-2.25,16.67h10.8V62.56H108.72z"></path>
	<path class="st0" d="M124.76,80.06c0.46,0,0.83-0.37,0.83-0.83c0-0.46-0.37-0.83-0.83-0.83c-0.46,0-0.83,0.37-0.83,0.83   C123.93,79.69,124.3,80.06,124.76,80.06"></path>
	<path class="st0" d="M124.76,71.73c0.46,0,0.83-0.37,0.83-0.83c0-0.46-0.37-0.83-0.83-0.83c-0.46,0-0.83,0.37-0.83,0.83   C123.93,71.35,124.3,71.73,124.76,71.73"></path>
	<path class="st0" d="M120.59,75.89c0.46,0,0.83-0.37,0.83-0.83c0-0.46-0.37-0.83-0.83-0.83c-0.46,0-0.83,0.37-0.83,0.83   C119.76,75.52,120.13,75.89,120.59,75.89"></path>
	<path class="st0" d="M120.59,67.56c0.46,0,0.83-0.37,0.83-0.83c0-0.46-0.37-0.83-0.83-0.83c-0.46,0-0.83,0.37-0.83,0.83   C119.76,67.19,120.13,67.56,120.59,67.56"></path>
	<path class="st0" d="M116.43,80.06c0.46,0,0.83-0.37,0.83-0.83c0-0.46-0.37-0.83-0.83-0.83c-0.46,0-0.83,0.37-0.83,0.83   C115.59,79.69,115.97,80.06,116.43,80.06"></path>
	<path class="st0" d="M116.43,71.73c0.46,0,0.83-0.37,0.83-0.83c0-0.46-0.37-0.83-0.83-0.83c-0.46,0-0.83,0.37-0.83,0.83   C115.59,71.35,115.97,71.73,116.43,71.73"></path>
	<path class="st0" d="M124.76,63.39c0.46,0,0.83-0.37,0.83-0.83c0-0.46-0.37-0.83-0.83-0.83c-0.46,0-0.83,0.37-0.83,0.83   C123.93,63.02,124.3,63.39,124.76,63.39"></path>
	<path class="st0" d="M116.43,63.39c0.46,0,0.83-0.37,0.83-0.83c0-0.46-0.37-0.83-0.83-0.83c-0.46,0-0.83,0.37-0.83,0.83   C115.59,63.02,115.97,63.39,116.43,63.39"></path>
	<path class="st1" d="M116.43,62.56v16.67h10.01c1.32-5.33,1.83-10.94,1.4-16.67H116.43z"></path>
	<path class="st0" d="M108.93,64.23c0.46,0,0.83-0.37,0.83-0.83c0-0.46-0.37-0.83-0.83-0.83c-0.46,0-0.83,0.37-0.83,0.83   C108.1,63.86,108.47,64.23,108.93,64.23"></path>
	<path class="st0" d="M117.27,64.23c0.46,0,0.83-0.37,0.83-0.83c0-0.46-0.37-0.83-0.83-0.83c-0.46,0-0.83,0.37-0.83,0.83   C116.43,63.86,116.81,64.23,117.27,64.23"></path>
	<path class="st1" d="M108.65,62.01c0.06,0.46,0.11,0.92,0.15,1.38h8.46v-2.55L108.65,62.01z"></path>
	<path class="st0" d="M124.76,64.23c0.46,0,0.83-0.37,0.83-0.83c0-0.46-0.37-0.83-0.83-0.83c-0.46,0-0.83,0.37-0.83,0.83   C123.93,63.86,124.3,64.23,124.76,64.23"></path>
	<path class="st0" d="M120.59,60.06c0.46,0,0.83-0.37,0.83-0.83c0-0.46-0.37-0.83-0.83-0.83c-0.46,0-0.83,0.37-0.83,0.83   C119.76,59.69,120.13,60.06,120.59,60.06"></path>
	<path class="st0" d="M116.43,64.23c0.46,0,0.83-0.37,0.83-0.83c0-0.46-0.37-0.83-0.83-0.83c-0.46,0-0.83,0.37-0.83,0.83   C115.59,63.86,115.97,64.23,116.43,64.23"></path>
	<path class="st1" d="M116.43,60.96v2.44h11.46c-0.08-1.31-0.2-2.62-0.38-3.94L116.43,60.96z"></path>
	<path class="st2" d="M58.54,43.92c1.94,13.4-7.35,25.84-20.76,27.78C24.38,73.64,11.94,64.34,10,50.94s7.35-25.84,20.76-27.78   C44.16,21.22,56.6,30.52,58.54,43.92"></path>
	
		<ellipse transform="matrix(0.7975 -0.6034 0.6034 0.7975 -19.5064 34.1996)" class="st3" cx="41.19" cy="46.16" rx="24.52" ry="24.52"></ellipse>
	<polygon class="st2" points="93.85,14.99 110.92,36.65 127.98,58.31 100.69,62.26 73.4,66.2 83.63,40.6  "></polygon>
	<polygon class="st3" points="102.07,13.28 119.14,34.94 136.21,56.6 108.91,60.55 81.62,64.5 91.85,38.89  "></polygon>
</g>
</svg>
