<?xml version="1.0" encoding="UTF-8"?>
<!-- Generator: Adobe Illustrator 27.0.1, SVG Export Plug-In . SVG Version: 6.00 Build 0)  -->
<svg xmlns="http://www.w3.org/2000/svg" xmlns:xlink="http://www.w3.org/1999/xlink" version="1.1" id="Livello_1" x="0px" y="0px" viewBox="0 0 300 300" style="enable-background:new 0 0 300 300;" xml:space="preserve">
<style type="text/css">
	.st0{fill:#FFFFFF;}
</style>
<g>
	<rect x="16.1" y="19.1" class="st0" width="250.2" height="250.2"></rect>
	<path d="M235.5,90c-14,0-25.5-11.4-25.5-25.5S221.4,39,235.5,39c14,0,25.5,11.4,25.5,25.5C260.9,78.6,249.5,90,235.5,90    M150.6,225.9c-42.1,0-76.4-34.3-76.4-76.4s34.3-76.4,76.4-76.4s76.4,34.3,76.4,76.4S192.7,225.9,150.6,225.9 M252.5,5.1h-205   c-23.4,0-42.4,19-42.4,42.5v204.9c0,23.4,19,42.5,42.4,42.5h204.9c23.4,0,42.5-19,42.5-42.5v-205C294.9,24.1,275.9,5.1,252.5,5.1    M150,193.9c-24.2,0-43.9-19.7-43.9-43.9s19.7-43.9,43.9-43.9s43.9,19.7,43.9,43.9S174.2,193.9,150,193.9"></path>
</g>
</svg>
