<?xml version="1.0" encoding="UTF-8"?>
<!-- Generator: Adobe Illustrator 27.0.1, SVG Export Plug-In . SVG Version: 6.00 Build 0)  -->
<svg xmlns="http://www.w3.org/2000/svg" xmlns:xlink="http://www.w3.org/1999/xlink" version="1.1" id="Livello_1" x="0px" y="0px" viewBox="0 0 300 300" style="enable-background:new 0 0 300 300;" xml:space="preserve">
<style type="text/css">
	.st0{fill:#FFFFFF;}
	.st1{fill:#465C91;}
</style>
<g>
	<rect x="25.1" y="19.1" class="st0" width="250.2" height="250.2"></rect>
	<path d="M252.5,5.1h-205c-23.4,0-42.4,19-42.4,42.5v204.9c0,23.4,19,42.5,42.4,42.5h204.9c23.4,0,42.5-19,42.5-42.5v-205   C294.9,24.1,275.9,5.1,252.5,5.1 M246.6,97.8c-0.4,0.6-0.5,0.8-0.7,1c-0.6,0.9-1.3,2-11.6,15.8c-2.6,3.5-3.9,7.9-3.6,12.6   c0.9,17.9-1.3,34-6.5,48.1c-5,13.3-12.6,24.6-22.8,33.8c-12.6,11.4-28.7,19.1-47.8,23.1c-9.4,1.9-19.4,2.9-29.8,2.9   c-9,0-18.3-0.7-27.6-2.2c-16.4-2.6-33-11.2-37.7-13.7L46,212.5l13.3-4.4c14.6-4.8,23.5-7.8,34.5-12.4c-11-5.3-19.5-14.9-23.6-27.3   l-3.1-9.4l2.5,0.4c-2.4-2.4-4.3-4.9-5.8-7.1c-5.3-8-8-17.7-7.4-26.1L57,118l4.9,1.9c-2.1-3.9-3.6-8.1-4.5-12.5   c-2.1-10.7-0.4-22.1,5.1-32.1l4.3-7.9l5.7,6.9C90.7,96,113.7,109,141,112.8c-1.1-7.7-0.3-15.1,2.5-21.8c3.2-7.7,8.9-14.3,16.6-19   c8.5-5.2,18.7-7.7,28.8-7.1c10.8,0.7,20.6,4.7,28.3,11.7c3.8-1,6.6-2.1,10.4-3.5c2.3-0.9,4.9-1.8,8.1-2.9l11.9-4.1l-7.7,22.1   c0.5,0,1-0.1,1.6-0.1l12.7-0.6L246.6,97.8z"></path>
</g>
<g>
	<rect x="1459.6" y="31" class="st0" width="250.2" height="250.2"></rect>
	<path class="st1" d="M1687.5,17h-204.9c-23.4,0-42.4,19-42.4,42.5v204.9c0,23.4,19,42.5,42.4,42.5h204.9c23.4,0,42.5-19,42.5-42.5   v-205C1730,36,1711,17,1687.5,17 M1533.6,235.6V88.1l130.5,72.5L1533.6,235.6z"></path>
</g>
</svg>
