<?xml version="1.0" encoding="UTF-8"?>
<!-- Generator: Adobe Illustrator 27.0.1, SVG Export Plug-In . SVG Version: 6.00 Build 0)  -->
<svg xmlns="http://www.w3.org/2000/svg" xmlns:xlink="http://www.w3.org/1999/xlink" version="1.1" id="Livello_1" x="0px" y="0px" viewBox="0 0 300 300" style="enable-background:new 0 0 300 300;" xml:space="preserve">
<g>
	<polygon points="150.4,5 156.7,17.6 170.6,19.7 160.5,29.5 162.9,43.4 150.4,36.8 138,43.4 140.4,29.5 130.3,19.7 144.2,17.6  "></polygon>
	<polygon points="88,24.2 94.3,36.8 108.2,38.8 98.1,48.7 100.5,62.5 88,56 75.6,62.5 78,48.7 67.9,38.8 81.8,36.8  "></polygon>
	<polygon points="259.5,70.2 265.7,82.9 279.7,84.9 269.6,94.7 272,108.6 259.5,102 247,108.6 249.4,94.7 239.3,84.9 253.3,82.9     "></polygon>
	<polygon points="39.8,70.2 46.1,82.9 60,84.9 49.9,94.7 52.3,108.6 39.8,102 27.4,108.6 29.7,94.7 19.7,84.9 33.6,82.9  "></polygon>
	<polygon points="39.8,195.5 46.1,208.1 60,210.2 49.9,220 52.3,233.9 39.8,227.3 27.4,233.9 29.7,220 19.7,210.2 33.6,208.1  "></polygon>
	<polygon points="259.5,195.5 265.7,208.1 279.7,210.2 269.6,220 272,233.9 259.5,227.3 247,233.9 249.4,220 239.3,210.2    253.3,208.1  "></polygon>
	<polygon points="213.3,24.2 219.6,36.8 233.5,38.8 223.4,48.7 225.8,62.5 213.3,56 200.9,62.5 203.2,48.7 193.2,38.8 207.1,36.8     "></polygon>
	<polygon points="88,239.1 94.3,251.7 108.2,253.8 98.1,263.6 100.5,277.5 88,270.9 75.6,277.5 78,263.6 67.9,253.8 81.8,251.7  "></polygon>
	<polygon points="213.3,239.1 219.6,251.7 233.5,253.8 223.4,263.6 225.8,277.5 213.3,270.9 200.9,277.5 203.2,263.6 193.2,253.8    207.1,251.7  "></polygon>
	<polygon points="25.6,132 31.9,144.6 45.8,146.7 35.7,156.5 38.1,170.4 25.6,163.8 13.2,170.4 15.5,156.5 5.5,146.7 19.4,144.6     "></polygon>
	<polygon points="273.8,132 280,144.6 294,146.7 283.9,156.5 286.3,170.4 273.8,163.8 261.3,170.4 263.7,156.5 253.6,146.7    267.6,144.6  "></polygon>
	<polygon points="150.4,257.5 156.7,270.2 170.6,272.2 160.5,282 162.9,295.9 150.4,289.4 138,295.9 140.4,282 130.3,272.2    144.2,270.2  "></polygon>
</g>
</svg>
