<?xml version="1.0" encoding="UTF-8"?>
<!-- Generator: Adobe Illustrator 27.0.1, SVG Export Plug-In . SVG Version: 6.00 Build 0)  -->
<svg xmlns="http://www.w3.org/2000/svg" xmlns:xlink="http://www.w3.org/1999/xlink" version="1.1" id="Livello_1" x="0px" y="0px" viewBox="0 0 300 300" style="enable-background:new 0 0 300 300;" xml:space="preserve">
<style type="text/css">
	.st0{fill:#FFFFFF;}
</style>
<g>
	<rect x="24.6" y="19.1" class="st0" width="250.2" height="250.2"></rect>
	<path d="M226.4,234.9h-33.9V167c0-9.4-7.6-17-17-17s-17,7.6-17,17v67.9h-34V116h34v6.4c8.9-2.8,14.7-6.4,25.5-6.4   c23,0,42.4,20.7,42.4,45.1V234.9z M107.5,99.1h-34v-34h34V99.1z M107.5,234.9h-34V116h34V234.9z M252.5,5.1h-205   c-23.4,0-42.4,19-42.4,42.5v204.9c0,23.4,19,42.5,42.4,42.5h204.9c23.4,0,42.5-19,42.5-42.5v-205C294.9,24.1,275.9,5.1,252.5,5.1"></path>
</g>
</svg>
