<?xml version="1.0" encoding="UTF-8"?>
<!-- Generator: Adobe Illustrator 27.0.1, SVG Export Plug-In . SVG Version: 6.00 Build 0)  -->
<svg xmlns="http://www.w3.org/2000/svg" xmlns:xlink="http://www.w3.org/1999/xlink" version="1.1" id="Livello_1" x="0px" y="0px" viewBox="0 0 1047 211" style="enable-background:new 0 0 1047 211;" xml:space="preserve">
<style type="text/css">
	.st0{fill:#034EA2;}
	.st1{font-family:'Helvetica';}
	.st2{font-size:70.8774px;}
	.st3{fill:#FFF200;}
</style>
<text transform="matrix(1.0848 0 0 1 360.0205 82.8589)"><tspan x="0" y="0" class="st0 st1 st2">Funded by</tspan><tspan x="0" y="85.1" class="st0 st1 st2">the European Union</tspan></text>
<rect x="-0.2" y="0" class="st0" width="318" height="211"></rect>
<g>
	<polygon class="st3" points="159.2,25 162.7,32 170.3,33.2 164.8,38.6 166.1,46.3 159.2,42.6 152.3,46.3 153.6,38.6 148.1,33.2    155.7,32  "></polygon>
	<polygon class="st3" points="124.6,35.7 128.1,42.6 135.8,43.7 130.2,49.2 131.6,56.9 124.6,53.3 117.8,56.9 119.1,49.2    113.5,43.7 121.2,42.6  "></polygon>
	<polygon class="st3" points="219.5,61.1 223,68.1 230.7,69.2 225.1,74.7 226.5,82.4 219.5,78.7 212.6,82.4 213.9,74.7 208.4,69.2    216.1,68.1  "></polygon>
	<polygon class="st3" points="98,61.1 101.5,68.1 109.2,69.2 103.6,74.7 104.9,82.4 98,78.7 91.1,82.4 92.4,74.7 86.9,69.2    94.5,68.1  "></polygon>
	<polygon class="st3" points="98,130.4 101.5,137.4 109.2,138.6 103.6,144 104.9,151.7 98,148 91.1,151.7 92.4,144 86.9,138.6    94.5,137.4  "></polygon>
	<polygon class="st3" points="219.5,130.4 223,137.4 230.7,138.6 225.1,144 226.5,151.7 219.5,148 212.6,151.7 213.9,144    208.4,138.6 216.1,137.4  "></polygon>
	<polygon class="st3" points="194,35.7 197.5,42.6 205.1,43.7 199.6,49.2 200.9,56.9 194,53.3 187.1,56.9 188.4,49.2 182.9,43.7    190.5,42.6  "></polygon>
	<polygon class="st3" points="124.6,154.6 128.1,161.5 135.8,162.7 130.2,168.1 131.6,175.8 124.6,172.2 117.8,175.8 119.1,168.1    113.5,162.7 121.2,161.5  "></polygon>
	<polygon class="st3" points="194,154.6 197.5,161.5 205.1,162.7 199.6,168.1 200.9,175.8 194,172.2 187.1,175.8 188.4,168.1    182.9,162.7 190.5,161.5  "></polygon>
	<polygon class="st3" points="90.1,95.3 93.6,102.3 101.3,103.4 95.7,108.9 97,116.6 90.1,112.9 83.3,116.6 84.5,108.9 79,103.4    86.7,102.3  "></polygon>
	<polygon class="st3" points="227.4,95.3 230.9,102.3 238.6,103.4 233,108.9 234.4,116.6 227.4,112.9 220.5,116.6 221.9,108.9    216.3,103.4 224,102.3  "></polygon>
	<polygon class="st3" points="159.2,164.7 162.7,171.8 170.3,172.9 164.8,178.3 166.1,186 159.2,182.4 152.3,186 153.6,178.3    148.1,172.9 155.7,171.8  "></polygon>
</g>
</svg>
